<svg width="36" height="36" viewBox="0 0 36 36" fill="none" xmlns="http://www.w3.org/2000/svg">
<path fill-rule="evenodd" clip-rule="evenodd" d="M22.1512 5.46553C21.0912 4.8905 19.8892 4.54888 18.6168 4.5048C18.4784 4.5 18.319 4.5 18.0002 4.5C17.6814 4.5 17.522 4.5 17.3835 4.5048C13.5197 4.63866 10.3045 7.51642 9.74478 11.3418C9.72473 11.4788 9.70713 11.6372 9.67193 11.954L9.67192 11.9541L9.29421 15.3535C9.19345 16.2603 9.14307 16.7137 9.04293 17.1543C8.9222 17.6855 8.74754 18.2029 8.52166 18.6986C8.3343 19.1098 8.09958 19.501 7.63014 20.2834L6.31755 22.471C5.51179 23.8139 5.10892 24.4854 5.39614 24.9927C5.68337 25.5 6.46643 25.5 8.03253 25.5H27.9678C29.5339 25.5 30.3169 25.5 30.6042 24.9927C30.8914 24.4854 30.4885 23.8139 29.6828 22.471L28.3702 20.2834L28.3701 20.2833C27.9007 19.5009 27.666 19.1097 27.4787 18.6986C27.2528 18.2029 27.0781 17.6855 26.9574 17.1543C26.8572 16.7137 26.8069 16.2603 26.7061 15.3535L26.6658 14.9908C23.5076 14.8174 21.0002 12.2015 21.0002 9C21.0002 7.67854 21.4274 6.45686 22.1512 5.46553ZM24.4802 7.37157C25.4023 8.47466 26.035 9.83468 26.2555 11.3418C26.2749 11.4744 26.292 11.627 26.325 11.9237C24.9933 11.6175 24.0002 10.4247 24.0002 9C24.0002 8.39969 24.1765 7.84056 24.4802 7.37157Z" fill="white"/>
<path d="M13.5 25.5C13.5 26.0909 13.6164 26.6761 13.8425 27.2221C14.0687 27.768 14.4002 28.2641 14.818 28.682C15.2359 29.0998 15.732 29.4313 16.2779 29.6575C16.8239 29.8836 17.4091 30 18 30C18.5909 30 19.1761 29.8836 19.7221 29.6575C20.268 29.4313 20.7641 29.0998 21.182 28.682C21.5998 28.2641 21.9313 27.768 22.1575 27.2221C22.3836 26.6761 22.5 26.0909 22.5 25.5L18 25.5H13.5Z" fill="white"/>
<circle cx="27" cy="9" r="3.5" fill="white" stroke="white"/>
</svg>
