<svg width="30" height="30" viewBox="0 0 30 30" fill="none" xmlns="http://www.w3.org/2000/svg">
<path fill-rule="evenodd" clip-rule="evenodd" d="M26.25 15C26.25 21.2132 21.2132 26.25 15 26.25C8.7868 26.25 3.75 21.2132 3.75 15C3.75 8.7868 8.7868 3.75 15 3.75C21.2132 3.75 26.25 8.7868 26.25 15ZM15 22.25C14.4477 22.25 14 21.8023 14 21.25V16H8.75C8.19772 16 7.75 15.5523 7.75 15C7.75 14.4477 8.19772 14 8.75 14H14V8.75C14 8.19772 14.4477 7.75 15 7.75C15.5523 7.75 16 8.19772 16 8.75V14H21.25C21.8023 14 22.25 14.4477 22.25 15C22.25 15.5523 21.8023 16 21.25 16H16V21.25C16 21.8023 15.5523 22.25 15 22.25Z" fill="white"/>
</svg>
